<svg width="11" height="12" viewBox="0 0 11 12" fill="none" xmlns="http://www.w3.org/2000/svg">
<path d="M9.85625 3.01875L9.8625 3.0125L7.5375 0.6875L6.875 1.35L8.19375 2.66875C7.60625 2.89375 7.1875 3.45625 7.1875 4.125C7.1875 4.33019 7.22792 4.53337 7.30644 4.72294C7.38496 4.91251 7.50005 5.08476 7.64515 5.22985C7.93817 5.52288 8.3356 5.6875 8.75 5.6875C8.975 5.6875 9.18125 5.6375 9.375 5.55625V10.0625C9.375 10.2283 9.30915 10.3872 9.19194 10.5044C9.07473 10.6217 8.91576 10.6875 8.75 10.6875C8.58424 10.6875 8.42527 10.6217 8.30806 10.5044C8.19085 10.3872 8.125 10.2283 8.125 10.0625V7.25C8.125 6.91848 7.9933 6.60054 7.75888 6.36612C7.52446 6.1317 7.20652 6 6.875 6H6.25V1.625C6.25 1.29348 6.1183 0.975537 5.88388 0.741116C5.64946 0.506696 5.33152 0.375 5 0.375H1.25C0.918479 0.375 0.600537 0.506696 0.366116 0.741116C0.131696 0.975537 0 1.29348 0 1.625V11.625H6.25V6.9375H7.1875V10.0625C7.1875 10.4769 7.35212 10.8743 7.64515 11.1674C7.93817 11.4604 8.3356 11.625 8.75 11.625C8.95519 11.625 9.15837 11.5846 9.34794 11.5061C9.53751 11.4275 9.70976 11.3124 9.85485 11.1674C9.99995 11.0223 10.115 10.85 10.1936 10.6604C10.2721 10.4709 10.3125 10.2677 10.3125 10.0625V4.125C10.3125 3.69375 10.1375 3.3 9.85625 3.01875ZM5 6.9375V10.375H1.25V6H5V6.9375ZM5 4.75H1.25V1.625H5V4.75ZM8.75 4.75C8.58424 4.75 8.42527 4.68415 8.30806 4.56694C8.19085 4.44973 8.125 4.29076 8.125 4.125C8.125 3.95924 8.19085 3.80027 8.30806 3.68306C8.42527 3.56585 8.58424 3.5 8.75 3.5C8.91576 3.5 9.07473 3.56585 9.19194 3.68306C9.30915 3.80027 9.375 3.95924 9.375 4.125C9.375 4.29076 9.30915 4.44973 9.19194 4.56694C9.07473 4.68415 8.91576 4.75 8.75 4.75Z" fill="#7B7B7B"/>
</svg>
