<svg width="10" height="14" viewBox="0 0 10 14" fill="none" xmlns="http://www.w3.org/2000/svg">
<path d="M2.69437 0.27373C2.5889 0.275195 2.48051 0.284277 2.36625 0.301855C1.79496 0.38916 1.40824 0.564063 1.18851 0.783789C0.968787 1.00381 0.880896 1.26953 0.927771 1.6627C0.965857 1.97002 1.02152 2.12559 1.08304 2.22637C1.1475 2.32744 1.23246 2.39834 1.39066 2.51758C1.69535 2.74609 2.1934 3.12402 2.85258 4.14062C3.08988 4.21094 3.28617 4.20215 3.48539 4.1377C3.66117 4.08203 3.83695 3.97949 4.01273 3.84766C3.91898 3.46094 3.97758 3.09473 4.05668 2.76953C4.15043 2.38779 4.26176 2.04473 4.26176 1.71748C4.26176 0.989453 3.7432 0.308301 2.79691 0.274609C2.76469 0.273438 2.72953 0.273145 2.69437 0.27373ZM4.01566 4.47754C3.89847 4.54199 3.77836 4.60059 3.64652 4.6416C3.49711 4.68848 3.33597 4.71484 3.17191 4.71484L4.52836 9.56641L5.3809 9.35254L4.01566 4.47754ZM7.5723 9.37891C7.52836 9.37891 7.48148 9.38477 7.43461 9.39648L2.78226 10.4688C2.28422 10.583 2.1934 11.1104 2.4014 11.4209C1.91508 11.5645 1.79496 12.1123 1.99418 12.4727C1.12992 12.6309 1.19144 13.8672 2.18754 13.8672H8.55668C9.61722 13.8672 9.61722 12.4551 8.55668 12.4551H5.57426L8.30472 12.1357C9.2393 12.0273 9.11625 10.624 8.17875 10.7324L5.84086 11.0049L5.83207 10.9727L7.63676 10.5596C8.3516 10.3955 8.23148 9.39356 7.6016 9.37891H7.5723Z" fill="#7B7B7B"/>
</svg>
