<svg width="16" height="16" viewBox="0 0 16 16" fill="none" xmlns="http://www.w3.org/2000/svg">
<path d="M11.75 9.875C11.75 11.5 11 12.9375 9.8125 13.8125L9.5 13.5L8.1875 12.1875L9.0625 11.3125L9.8125 12.0625C10.125 11.625 10.375 11.0625 10.4375 10.5H9.25V9.25H10.4375C10.3125 8.6875 10.125 8.1875 9.8125 7.6875L9.0625 8.4375L8.1875 7.5625L8.9375 6.8125C8.5 6.5 7.9375 6.25 7.375 6.1875V7.375H6.125V6.1875C5.5625 6.3125 5.0625 6.5 4.5625 6.8125L6.4375 8.6875C6.5625 8.6875 6.625 8.625 6.75 8.625C7.08152 8.625 7.39946 8.7567 7.63388 8.99112C7.8683 9.22554 8 9.54348 8 9.875C8 10.2065 7.8683 10.5245 7.63388 10.7589C7.39946 10.9933 7.08152 11.125 6.75 11.125C6.05625 11.125 5.5 10.5688 5.5 9.875C5.5 9.75 5.5 9.6875 5.5625 9.5625L3.6875 7.6875C3.375 8.125 3.125 8.6875 3.0625 9.25H4.25V10.5H3.0625C3.1875 11.0625 3.375 11.5625 3.6875 12.0625L4.4375 11.3125L5.3125 12.1875L3.6875 13.8125C2.5 12.9375 1.75 11.5 1.75 9.875C1.75 7.1125 3.9875 4.875 6.75 4.875C9.5125 4.875 11.75 7.1125 11.75 9.875ZM14.875 3.625C14.875 2.5875 14.0375 1.75 13 1.75C11.9625 1.75 11.125 2.5875 11.125 3.625C11.125 4.4375 11.65 5.125 12.375 5.3875V7.375H13.625V5.3875C14.35 5.125 14.875 4.4375 14.875 3.625ZM13 4.25C12.6562 4.25 12.375 3.96875 12.375 3.625C12.375 3.28125 12.6562 3 13 3C13.3438 3 13.625 3.28125 13.625 3.625C13.625 3.96875 13.3438 4.25 13 4.25Z" fill="#7B7B7B"/>
</svg>
